<?xml version="1.0" standalone="no"?><!DOCTYPE svg PUBLIC "-//W3C//DTD SVG 1.1//EN" "http://www.w3.org/Graphics/SVG/1.1/DTD/svg11.dtd"><svg t="1750820740905" class="icon" viewBox="0 0 1024 1024" version="1.1" xmlns="http://www.w3.org/2000/svg" p-id="7133" xmlns:xlink="http://www.w3.org/1999/xlink" width="200" height="200"><path d="M430.86010361328124 103.26942968750001c24.248704394531252-5.8290152343749995 49.89637265625-8.86010361328125 76.24352373046875-8.86010361328125s51.99481845703125 3.03108837890625 76.2435228515625 8.86010361328125c14.68911884765625-8.39378232421875 99.79274619140625-53.62694296875 178.36787548828124-37.538859375 21.21761689453125 5.8290152343749995 22.3834201171875 124.9740931640625 20.751295605468748 205.4145076171875 8.86010361328125 24.481865039062498 13.75647626953125 50.59585458984375 13.75647626953125 77.64248671874999 0 118.91191728515624-92.56476708984376 218.70466347656253-217.77202001953123 246.68393818359374-20.28497431640625 15.15544013671875-44.76683935546875 23.782383105468746-71.11398955078126 23.782383105468746s-50.829015234375-8.86010361328125-71.1139904296875-23.782383105468746C310.78238310546874 567.7253887695312 218.21761689453126 467.6994819335937 218.21761689453126 348.7875646484375c0-27.046632128906253 4.8963726562500005-53.1606216796875 13.75647626953125-77.64248671874999-1.63212451171875-80.44041445312499-0.4663212890625-199.5854923828125 20.751295605468748-205.64766826171876 78.575129296875-15.8549220703125 163.44559599609374 29.61139921875 178.13471484374998 37.77202001953125z" fill="#FFA715" p-id="7134"></path><path d="M507.3367879882813 619.4870465820313c-25.4145076171875 0-50.12953330078125-8.1606216796875-71.1139904296875-23.782383105468746h-0.23316064453125c-128.2383421875-28.678756640625-217.7720208984375-130.33678798828126-217.77202001953123-246.91709882812498 0-26.3471501953125 4.663212011718749-52.227979101562504 13.523315625-77.1761654296875v-0.4663212890625c-0.932642578125-52.694300390625-0.4663212890625-96.7616578125 1.86528515625-130.5699486328125 1.3989638671875-21.917098828125003 3.7305703125-39.40414541015625 6.52849716796875-51.52849716796875 1.63212451171875-7.2279791015625 3.2642490234375-12.12435263671875 5.1295341796875-15.621761425781251 0.932642578125-2.0984458007812496 2.0984458007812496-3.7305703125 3.4974087890625-5.1295341796875l2.0984458007812496-2.098444921875 3.03108837890625-0.4663212890625C287 59.43523291015623 324.7720208984375 62.699481933593745 366.04145058593747 75.52331562500001c22.84974052734375 7.2279791015625 45.932642578125 17.02072529296875 65.05181367187501 27.7461140625 25.18134697265625-5.8290152343749995 50.829015234375-8.86010361328125 76.24352373046875-8.86010361328125 26.58031083984375 0 52.227979101562504 3.03108837890625 76.2435228515625 8.86010361328125 18.6528498046875-10.725388769531248 41.7357509765625-20.518134960937502 65.05181367187501-27.7461140625 41.26942968750001-12.8238345703125 78.80828994140626-16.08808271484375 111.91709794921876-9.792745312500001l3.03108837890625 0.4663212890625 2.0984458007812496 2.098444921875c1.63212451171875 1.63212451171875 2.56476708984375 3.49740966796875 3.2642481445312503 4.89637353515625l0.23316064453125 0.23316064453125c1.3989638671875 2.797927734375 3.2642490234375 7.92746103515625 5.1295341796875 15.621761425781251 2.797927734375 12.12435263671875 5.12953330078125 29.378238574218752 6.52849716796875 51.52849716796875 2.3316064453125 31.709844140625 3.03108837890625 74.37823857421874 1.86528515625 130.33678798828126v0.23316064453125c9.0932642578125 24.948186328125 13.75647626953125 51.06217587890625 13.75647626953125 77.64248671874999 0 116.58031083984373-89.5336787109375 218.00518154296873-217.77202001953123 246.91709882812498h-0.23316064453125c-20.98445625 15.388600781249998-45.699481933593745 23.782383105468746-71.11398955078126 23.782383105468746zM262.28497431640625 84.15025947265622c-0.932642578125 2.0984458007812496-1.63212451171875 5.3626939453125-2.56476708984375 9.32642490234375-2.56476708984375 11.19171005859375-4.663212011718749 27.51295341796875-6.06217587890625 48.26424814453125-2.0984458007812496 33.34196865234375-2.797927734375 76.70984414062501-1.86528515625 128.93782412109374V274.17616542968744l-1.16580322265625 3.7305703125c-8.1606216796875 22.84974052734375-12.35751328125 46.63212451171875-12.35751328125 70.64766826171875 0 107.2538859375 83.2383421875 200.75129560546875 202.38342011718748 227.3316064453125l3.9637300781250002 0.932642578125 3.2642490234375 2.3316064453125c17.7202072265625 13.056995214843749 38.238342187499995 20.051813671875 59.45595908203125 20.05181279296875s41.7357509765625-6.99481845703125 59.455958203125-20.05181279296875l3.49740966796875-2.56476708984375 3.9637300781250002-0.932642578125c119.1450779296875-26.58031083984375 202.38342011718748-120.0777205078125 202.38342011718748-227.3316064453125 0-24.015543750000003-4.196891601562499-47.797927734375-12.35751328125-70.4145076171875l-1.3989638671875-3.2642490234375v-3.9637300781250002c0.932642578125-55.72538876953125 0.4663212890625-97.92746103515626-1.86528515625-129.17098476562498-1.3989638671875-20.98445625-3.49740966796875-37.305699609375-6.06217587890625-48.26424814453125-0.932642578125-4.196891601562499-2.0984458007812496-7.4611397460937505-2.797927734375-9.32642490234375-28.678756640625-4.663212011718749-61.32124335937499-1.16580322265625-97.46113974609375 10.02590595703125-21.917098828125003 6.7616578125-43.834196777343756 16.08808271484375-61.08808271484375 26.113990429687497l-7.2279791015625 3.73056943359375-7.4611397460937505-1.86528515625c-22.6165798828125-5.59585458984375-46.63212451171875-8.39378232421875-71.58031083984375-8.39378232421875-24.015543750000003 0-48.031088378906254 2.797927734375-71.58031171875 8.39378232421875l-7.2279791015625 1.86528515625-6.99481845703125-3.73056943359375c-17.7202072265625-10.0259068359375-39.63730605468751-19.35233173828125-61.32124335937499-26.113990429687497-36.37305703125-10.958549414062501-69.24870439453125-14.22279755859375-97.92746103515626-9.792745312500001z" fill="#6A3906" p-id="7135"></path><path d="M507.10362734374996 704.1243526367188c93.49740966796875 0 169.507771875-92.79792773437501 169.507771875-207.27979277343752s-88.60103613281251-205.4145076171875-169.507771875-205.4145076171875-169.507771875 90.93264257812501-169.50777275390627 205.4145076171875 76.0103630859375 207.27979277343752 169.50777275390627 207.27979277343752z" fill="#FFFFFF" p-id="7136"></path><path d="M629.7461140625 140.10880800781246c-1.16580322265625 0-2.0984458007812496-0.23316064453125-3.2642490234375-0.932642578125-2.797927734375-1.86528515625-3.49740966796875-5.3626939453125-1.63212451171875-8.1606216796875 41.968911621093746-64.11917109375 127.305699609375-63.88601044921876 130.80310927734376-63.88601044921876 3.2642490234375 0 5.8290152343749995 2.56476708984375 5.8290152343749995 5.82901611328125s-2.56476708984375 5.8290152343749995-5.8290152343749995 5.8290152343749995h-0.23316064453125c-2.797927734375 0-82.7720208984375 0.69948193359375-121.01036308593751 58.756477148437504-0.932642578125 1.63212451171875-2.797927734375 2.56476708984375-4.663212011718749 2.5647662109374996zM388.8911919921875 140.10880800781246c-1.86528515625 0-3.7305703125-0.932642578125-4.89637353515625-2.5647662109374996C345.290155859375 78.55440400390626 263.91709882812495 78.78756464843752 262.98445625 78.78756464843752c-3.2642490234375 0-5.8290152343749995-2.56476708984375-5.82901611328125-5.8290152343749995s2.56476708984375-5.8290152343749995 5.82901611328125-5.82901611328125c3.7305703125 0 88.83419677734376-0.23316064453125 130.8031083984375 63.88601044921876 1.86528515625 2.797927734375 0.932642578125 6.2953365234375-1.63212451171875 8.1606216796875-1.16580322265625 0.69948193359375-2.3316064453125 0.932642578125-3.2642481445312503 0.932642578125z" fill="#6A3906" p-id="7137"></path><path d="M647.2331606445313 149.20207226562502s55.958549414062496 16.321243359375 97.694300390625 87.901555078125c4.8963726562500005-45.23316064453125-4.196891601562499-110.051813671875-7.694300390624999-126.13989638671876-60.854922070312504-5.12953330078125-90 38.238342187499995-90 38.238341308593746zM370.93782412109374 149.20207226562502s-55.958549414062496 16.321243359375-97.694300390625 87.901555078125C268.34715019531245 191.87046669921875 277.44041445312496 127.05181367187498 280.93782412109374 110.9637309570312c60.854922070312504-5.12953330078125 90 38.238342187499995 90 38.238341308593746z" fill="#FFFFFF" p-id="7138"></path><path d="M544.64248671875 116.55958554687504c5.8290152343749995 0.932642578125 11.65803134765625 1.63212451171875 17.48704658203125 2.797927734375 5.59585458984375 0.932642578125 10.725388769531248 2.0984458007812496 14.922280371093748 3.0310875000000004v41.9689125c0 8.86010361328125-7.2279791015625 16.08808271484375-16.08808271484375 16.08808271484375-8.86010361328125 0-16.08808271484375-7.2279791015625-16.08808359375-16.08808271484375V116.55958554687504h-0.23316064453125z m-74.844558984375 0v47.797927734375c0 8.86010361328125-7.2279791015625 16.08808271484375-16.08808359375 16.08808271484375-8.86010361328125 0-16.08808271484375-7.2279791015625-16.08808271484375-16.08808271484375v-41.9689125c4.196891601562499-0.932642578125 9.32642490234375-1.86528515625 14.922280371093748-3.0310875000000004 5.8290152343749995-1.3989638671875 11.424870703125-2.0984458007812496 17.2538859375-2.797927734375z m21.217616015624998-1.86528515625a185.6261654296875 185.6261654296875 0 0 1 32.17616630859375 0v61.32124335937499c0 8.86010361328125-7.2279791015625 16.08808271484375-16.08808271484375 16.08808359375-8.86010361328125 0-16.08808271484375-7.2279791015625-16.08808359375-16.08808359375V114.69430039062502z" fill="#FFFFFF" p-id="7139"></path><path d="M481.9222794921875 298.19171005859374a21.917098828125006 16.321243359375 0 1 0 43.834196777343756 0 21.917098828125006 16.321243359375 0 1 0-43.834196777343756 0Z" fill="#6A3906" p-id="7140"></path><path d="M262.98445625 380.2642490234375a49.1968916015625 16.321243359375 0 1 0 98.39378232421876 0 49.1968916015625 16.321243359375 0 1 0-98.39378232421876 0Z" fill="#FE5E18" p-id="7141"></path><path d="M646.3005180664062 380.2642490234375a49.1968916015625 16.321243359375 0 1 0 98.39378232421876 0 49.1968916015625 16.321243359375 0 1 0-98.39378232421876 0Z" fill="#FE5E18" p-id="7142"></path><path d="M534.3834201171875 363.94300478515623c-4.8963726562500005 0-9.32642490234375-1.63212451171875-12.59067392578125-4.430051367187501-0.23316064453125-0.23316064453125-0.69948193359375-0.4663212890625-1.16580322265625-1.16580322265625l-2.0984458007812496-2.0984458007812496c-9.32642490234375-8.1606216796875-23.31606181640625-7.2279791015625-31.47668349609375 2.0984458007812496-0.69948193359375 0.69948193359375-1.16580322265625 1.16580322265625-1.16580322265625 1.3989638671875-3.49740966796875 2.797927734375-7.92746103515625 4.430052246093751-12.59067392578125 4.430051367187501-10.492228125 0-18.6528498046875-7.694300390624999-18.6528498046875-16.55440400390625h-16.321243359375c0 18.186528515625 15.621761425781251 32.87564736328125 34.9740931640625 32.8756482421875 8.86010361328125 0 16.7875646484375-3.03108837890625 22.84974140625-7.9274619140625004 0.932642578125-0.69948193359375 2.0984458007812496-1.86528515625 3.2642481445312503-3.2642481445312503 2.0984458007812496-2.56476708984375 6.06217587890625-2.797927734375 8.39378232421875-0.4663212890625 0.23316064453125 0.23316064453125 0.4663212890625 0.23316064453125 0.4663212890625 0.4663212890625 1.16580322265625 1.3989638671875 2.0984458007812496 2.3316064453125 3.03108837890625 3.03108837890625 6.06217587890625 5.12953330078125 14.22279755859375 8.1606216796875 23.08290205078125 8.1606216796875 19.35233173828125 0 34.9740931640625-14.68911884765625 34.9740931640625-32.8756482421875h-16.32124423828125c0.23316064453125 8.62694296875-7.92746103515625 16.321243359375-18.65284892578125 16.321243359375z m0 0c-4.8963726562500005 0-9.32642490234375-1.63212451171875-12.59067392578125-4.430051367187501-0.23316064453125-0.23316064453125-0.69948193359375-0.4663212890625-1.16580322265625-1.16580322265625l-2.0984458007812496-2.0984458007812496c-9.32642490234375-8.1606216796875-23.31606181640625-7.2279791015625-31.47668349609375 2.0984458007812496-0.69948193359375 0.69948193359375-1.16580322265625 1.16580322265625-1.16580322265625 1.3989638671875-3.49740966796875 2.797927734375-7.92746103515625 4.430052246093751-12.59067392578125 4.430051367187501-10.492228125 0-18.6528498046875-7.694300390624999-18.6528498046875-16.55440400390625h-16.321243359375c0 18.186528515625 15.621761425781251 32.87564736328125 34.9740931640625 32.8756482421875 8.86010361328125 0 16.7875646484375-3.03108837890625 22.84974140625-7.9274619140625004 0.932642578125-0.69948193359375 2.0984458007812496-1.86528515625 3.2642481445312503-3.2642481445312503 2.0984458007812496-2.56476708984375 6.06217587890625-2.797927734375 8.39378232421875-0.4663212890625 0.23316064453125 0.23316064453125 0.4663212890625 0.23316064453125 0.4663212890625 0.4663212890625 1.16580322265625 1.3989638671875 2.0984458007812496 2.3316064453125 3.03108837890625 3.03108837890625 6.06217587890625 5.12953330078125 14.22279755859375 8.1606216796875 23.08290205078125 8.1606216796875 19.35233173828125 0 34.9740931640625-14.68911884765625 34.9740931640625-32.8756482421875h-16.32124423828125c0.23316064453125 8.62694296875-7.92746103515625 16.321243359375-18.65284892578125 16.321243359375z" fill="#6A3906" p-id="7143"></path><path d="M361.61139921874997 352.7512956054688c65.75129560546874 0 98.62694296875-65.5181349609375 98.62694296875-65.5181349609375s-11.19171005859375-65.5181349609375-87.66839443359375-65.5181349609375-109.5854923828125 81.8393783203125-109.58549150390625 81.8393783203125 32.87564736328125 49.1968916015625 98.62694296875 49.1968916015625z" fill="#FFFFFF" p-id="7144"></path><path d="M361.37823857421876 352.98445625c-27.2797927734375 0-51.99481845703125-8.39378232421875-73.91191728515625-24.7150265625-6.99481845703125-5.12953330078125-13.290155859375002-10.958549414062501-18.6528498046875-17.02072529296875-0.932642578125-0.932642578125-1.63212451171875-2.0984458007812496-2.3316064453125-3.0310875000000004-0.4663212890625-0.69948193359375-0.932642578125-1.16580322265625-1.3989638671875-1.86528515625l-7.92746103515625-9.559585546874999h9.0932642578125c0-0.23316064453125 0.23316064453125-0.23316064453125 0.23316064453125-0.4663212890625 0.932642578125-1.63212451171875 1.86528515625-3.7305703125 3.03108837890625-5.8290152343749995 5.59585458984375-10.259067480468751 12.12435263671875-19.818653027343753 19.5854923828125-28.2124353515625 23.5492224609375-27.2797927734375 51.7616578125-41.03626904296875 83.70466259765625-41.036269921875004 31.709844140625 0 55.958549414062496 10.958549414062501 72.27979277343749 32.8756482421875 5.12953330078125 6.52849716796875 9.32642490234375 14.22279755859375 12.12435263671875 22.6165798828125 0.69948193359375 1.86528515625 1.3989638671875 4.196891601562499 2.0984458007812496 6.2953365234375 0.4663212890625 0.69948193359375 0.69948193359375 1.63212451171875 0.69948193359375 2.797927734375v1.3989638671875l-0.69948193359375 1.16580322265625c-0.23316064453125 0.69948193359375-0.69948193359375 1.16580322265625-1.16580322265625 2.0984458007812496-0.932642578125 1.3989638671875-1.86528515625 2.797927734375-2.797927734375 4.430051367187501-0.4663212890625 0.69948193359375-0.932642578125 1.63212451171875-1.63212451171875 2.3316064453125-5.3626939453125 8.1606216796875-11.424870703125 15.621761425781251-18.41968828125 22.6165798828125-21.68393818359375 22.15025947265625-46.63212451171875 33.1088080078125-73.91191728515625 33.10880888671875z m-84.87046669921875-50.59585546875c0.4663212890625 0.4663212890625 0.69948193359375 0.932642578125 1.16580322265625 1.3989638671875 4.663212011718749 5.3626939453125 10.259067480468751 10.492228125 16.7875646484375 15.15544013671875 19.818653027343753 14.922279492187501 42.43523291015625 22.3834201171875 66.91709882812499 22.3834201171875 24.015543750000003 0 46.16580322265625-9.79274619140625 65.51813408203125-29.378238574218752 6.52849716796875-6.52849716796875 12.12435263671875-13.290155859375002 17.020726171874998-20.7512947265625 0.4663212890625-0.69948193359375 1.16580322265625-1.63212451171875 1.6321236328125-2.3316064453125 0.69948193359375-1.16580322265625 1.3989638671875-2.3316064453125 2.0984458007812496-3.2642490234375l-1.3989638671875-4.19689072265625c-2.56476708984375-7.4611397460937505-6.06217587890625-13.9896369140625-10.492228125-19.5854923828125-13.9896369140625-18.886010449218748-35.20725380859375-28.2124353515625-62.95336787109375-28.2124353515625-28.44559599609375 0-53.62694296875 12.35751328125-74.844558984375 36.8393783203125-6.7616578125 7.92746103515625-12.8238345703125 16.7875646484375-18.186528515625 26.3471501953125-1.16580322265625 1.86528515625-2.0984458007812496 3.7305703125-2.797927734375 5.3626939453125-0.23316064453125 0-0.23316064453125 0-0.4663212890625 0.23316064453125z m177.43523291015626-16.08808271484375h-5.8290152343749995 5.8290152343749995z" fill="#6A3906" p-id="7145"></path><path d="M383.5284971679688 347.38860078125003c12.12435263671875 0 21.917098828125003-24.481865039062498 21.917098828125003-54.559585546875s-21.917098828125003-54.79274619140625-21.917098828125003-54.79274619140625S361.61139921874997 262.5181349609376 361.61139921874997 292.5958545898437s9.79274619140625 54.79274619140625 21.91709794921875 54.79274619140625z" fill="#6A3906" p-id="7146"></path><path d="M646.0673574218749 352.7512956054688c-65.75129560546874 0-98.62694296875-65.5181349609375-98.62694296875-65.5181349609375s11.19171005859375-65.5181349609375 87.66839355468751-65.5181349609375 109.5854923828125 81.8393783203125 109.5854923828125 81.8393783203125-32.87564736328125 49.1968916015625-98.62694296875 49.1968916015625z" fill="#FFFFFF" p-id="7147"></path><path d="M646.0673574218749 352.98445625c-27.2797927734375 0-52.227979101562504-10.958549414062501-73.91191728515625-32.64248759765625-6.99481845703125-6.99481845703125-13.290155859375002-14.68911884765625-18.41968916015625-22.6165798828125-0.4663212890625-0.932642578125-1.16580322265625-1.63212451171875-1.6321236328125-2.3316064453125-1.16580322265625-1.63212451171875-2.0984458007812496-3.2642490234375-3.03108837890625-4.8963726562500005v-0.23316064453125c-0.23316064453125-0.4663212890625-0.4663212890625-0.932642578125-0.4663212890625-1.3989638671875l-0.4663212890625-1.16580322265625v-1.3989638671875c0-1.16580322265625 0.23316064453125-2.0984458007812496 0.69948193359375-2.797927734375 0.4663212890625-2.0984458007812496 1.16580322265625-4.430052246093751 2.0984458007812496-6.52849716796875 2.797927734375-8.1606216796875 6.99481845703125-15.8549220703125 12.35751240234375-22.38341923828125 16.08808271484375-21.68393818359375 40.56994775390625-32.87564736328125 72.27979277343749-32.8756482421875 31.709844140625 0 59.9222794921875 13.75647626953125 83.47150283203125 41.036269921875004 7.4611397460937505 8.39378232421875 13.9896369140625 17.95336787109375 19.5854923828125 28.2124353515625 1.16580322265625 2.0984458007812496 2.0984458007812496 3.9637309570312502 3.0310875000000004 5.8290152343749995 0 0.23316064453125 0.23316064453125 0.23316064453125 0.23316064453125 0.4663212890625h9.0932642578125l-7.92746103515625 9.559585546874999c-0.4663212890625 0.4663212890625-0.932642578125 1.16580322265625-1.3989638671875 1.86528515625-0.69948193359375 0.932642578125-1.3989638671875 1.86528515625-2.3316055664062496 3.0310875000000004-5.3626939453125 6.06217587890625-11.65803134765625 11.8911919921875-18.6528498046875 17.02072529296875-22.3834201171875 16.08808271484375-47.331606445312495 24.248704394531252-74.61139921875 24.2487052734375zM560.0310883789062 285.8341967773438c0.4663212890625 0.932642578125 1.16580322265625 1.86528515625 1.86528427734375 3.03108837890625 0.4663212890625 0.69948193359375 1.16580322265625 1.63212451171875 1.63212451171875 2.56476708984375 4.8963726562500005 7.4611397460937505 10.492228125 14.22279755859375 17.02072529296875 20.7512947265625 19.35233173828125 19.35233173828125 41.502590332031254 29.378238574218752 65.5181349609375 29.378238574218752 24.481865039062498 0 47.09844580078125-7.4611397460937505 66.91709882812499-22.3834201171875 6.52849716796875-4.8963726562500005 12.12435263671875-9.79274619140625 16.7875646484375-15.15544013671875 0.4663212890625-0.4663212890625 0.69948193359375-0.932642578125 1.16580322265625-1.3989638671875 0 0 0-0.23316064453125-0.23316064453125-0.23316064453125-0.932642578125-1.63212451171875-1.63212451171875-3.49740966796875-2.797927734375-5.3626939453125-5.3626939453125-9.559585546874999-11.424870703125-18.41968916015625-18.186528515625-26.3471501953125-21.21761689453125-24.481865039062498-46.398963867187504-36.8393783203125-74.61139921875-36.8393783203125-27.7461140625 0-48.96373095703125 9.559585546874999-62.95336787109375 28.2124353515625-4.430052246093751 5.8290152343749995-8.1606216796875 12.35751328125-10.492228125 19.35233173828125-0.69948193359375 1.3989638671875-1.16580322265625 3.03108837890625-1.6321236328125 4.430051367187501z" fill="#6A3906" p-id="7148"></path><path d="M624.3834201171875 347.38860078125003c12.12435263671875 0 21.917098828125003-24.481865039062498 21.91709794921875-54.559585546875s-21.917098828125003-54.79274619140625-21.91709794921875-54.79274619140625-21.917098828125003 24.481865039062498-21.917098828125003 54.559585546875 9.79274619140625 54.79274619140625 21.917098828125003 54.79274619140625z" fill="#6A3906" p-id="7149"></path><path d="M232.67357509765628 687.8031083984374a273.73057031250005 273.2642490234375 0 1 0 547.4611397460939 0 273.73057031250005 273.2642490234375 0 1 0-547.4611397460939 0Z" fill="#FAEE00" p-id="7150"></path><path d="M506.4041454101562 961.0673574218749c-150.8549220703125 0-273.73057031250005-122.64248671874998-273.73057031250005-273.2642490234375s122.87564736328125-273.2642490234375 273.73057031250005-273.2642481445313 273.73057031250005 122.64248671874998 273.7305694335938 273.2642481445313c-0.23316064453125 150.62176142578124-122.87564736328125 273.2642490234375-273.7305694335938 273.2642490234375z m0-526.4766834960938c-139.89637265625 0-253.67875664062495 113.5492224609375-253.67875664062495 253.21243447265627S366.507771875 941.0155437500001 506.4041454101562 941.0155437500001s253.67875664062495-113.5492224609375 253.67875576171872-253.21243535156253-113.78238310546875-253.21243535156253-253.67875576171872-253.21243447265627z" fill="#6A3906" p-id="7151"></path><path d="M580.7823831054687 771.9740931640624l-0.23316064453125 0.23316064453125c-21.917098828125003-12.12435263671875-47.09844580078125-18.886010449218748-73.91191640625-18.886010449218748-28.91191728515625 0-55.958549414062496 7.92746103515625-79.04145146484375 21.917098828125003H424.5647670898437c-6.06217587890625 0-10.958549414062501-4.8963726562500005-10.958549414062501-10.958549414062501v-3.03108837890625c13.9896369140625-23.082901171874997 21.917098828125003-49.89637265625 21.91709794921875-78.80828994140626 0-27.7461140625-7.4611397460937505-53.86010361328125-20.2849734375-76.2435228515625-0.932642578125-1.63212451171875-1.63212451171875-3.49740966796875-1.63212451171875-5.59585546875 0-6.06217587890625 4.8963726562500005-10.958549414062501 10.958549414062501-10.958549414062501 2.0984458007812496 0 3.9637309570312502 0.4663212890625 5.59585458984375 1.63212451171875 22.3834201171875 12.8238345703125 48.497409667968746 20.28497431640625 76.47668437499999 20.28497431640625 28.2124353515625 0 54.79274619140625-7.694300390624999 77.40932607421875-20.98445625 1.3989638671875-0.69948193359375 2.797927734375-0.932642578125 4.430052246093751-0.932642578125 6.06217587890625 0 10.958549414062501 4.8963726562500005 10.95854853515625 10.958549414062501 0 1.63212451171875-0.23316064453125 3.03108837890625-0.932642578125 4.430052246093751-13.290155859375002 22.6165798828125-20.98445625 49.1968916015625-20.98445537109375 77.40932607421875 0 26.813471484375 6.99481845703125 51.99481845703125 19.119171093749998 73.91191728515625l-0.23316064453125 0.23316064453125c1.86528515625 1.86528515625 3.2642490234375 4.663212011718749 3.2642481445312503 7.694300390624999 0 6.06217587890625-4.8963726562500005 10.958549414062501-10.958549414062501 10.958549414062501-3.2642490234375 0-6.06217587890625-1.16580322265625-7.92746103515625-3.2642490234375z" fill="#6A3906" p-id="7152"></path><path d="M651.1968916015625 543.9430047851562a99.55958554687501 99.55958554687501 0 1 0 199.11917021484376 0 99.55958554687501 99.55958554687501 0 1 0-199.11917021484376 0Z" fill="#FFA715" p-id="7153"></path><path d="M750.7564762695312 643.5025903320312c-55.0259068359375 0-99.79274619140625-44.533678710937494-99.7927453125-99.55958554687501 0-54.79274619140625 44.76683935546875-99.55958554687501 99.7927453125-99.55958466796875s99.79274619140625 44.533678710937494 99.79274619140625 99.55958466796875c-0.23316064453125 55.0259068359375-44.76683935546875 99.55958554687501-99.79274619140625 99.55958554687501z m0-179.067357421875c-44.067357421875 0-79.74093251953126 35.67357509765625-79.74093251953126 79.507771875s35.9067357421875 79.507771875 79.74093251953126 79.50777275390625 79.74093251953126-35.67357509765625 79.7409333984375-79.50777275390625-35.9067357421875-79.507771875-79.7409333984375-79.507771875z" fill="#6A3906" p-id="7154"></path><path d="M673.1139895507813 579.8497405273438c-4.430052246093751 0-8.86010361328125-2.3316064453125-10.958549414062501-6.52849716796875-3.2642490234375-6.06217587890625-0.932642578125-13.523315625 5.1295341796875-16.7875646484375l48.26424814453125-25.64766826171875c6.06217587890625-3.2642490234375 13.523315625-0.932642578125 16.787565527343748 5.12953330078125 3.2642490234375 6.06217587890625 0.932642578125 13.523315625-5.1295341796875 16.7875646484375l-48.2642490234375 25.647669140625c-1.86528515625 0.932642578125-3.9637309570312502 1.3989638671875-5.8290152343749995 1.39896298828125zM700.3937823242188 618.0880827148437c-4.430052246093751 0-8.86010361328125-2.3316064453125-10.958549414062501-6.52849716796875-3.2642490234375-6.06217587890625-0.932642578125-13.523315625 5.1295341796875-16.7875646484375l48.26424814453125-25.64766826171875c6.06217587890625-3.2642490234375 13.523315625-0.932642578125 16.7875646484375 5.12953330078125 3.2642490234375 6.06217587890625 0.932642578125 13.523315625-5.12953330078125 16.7875646484375l-48.2642490234375 25.64766826171875c-1.86528515625 0.932642578125-3.9637309570312502 1.3989638671875-5.8290152343749995 1.3989638671875z" fill="#6A3906" p-id="7155"></path><path d="M172.75129560546873 543.9430047851562a99.55958554687501 99.55958554687501 0 1 0 199.11917109375003 0 99.55958554687501 99.55958554687501 0 1 0-199.11917109375003 0Z" fill="#FFA715" p-id="7156"></path><path d="M272.31088115234377 643.5025903320312c-55.0259068359375 0-99.79274619140625-44.533678710937494-99.79274619140625-99.55958554687501 0-54.79274619140625 44.76683935546875-99.55958554687501 99.79274619140625-99.55958466796875s99.79274619140625 44.533678710937494 99.79274619140625 99.55958466796875-44.76683935546875 99.55958554687501-99.79274619140625 99.55958554687501z m0-179.067357421875c-44.067357421875 0-79.74093251953126 35.67357509765625-79.7409333984375 79.507771875s35.9067357421875 79.507771875 79.7409333984375 79.50777275390625 79.74093251953126-35.67357509765625 79.74093251953126-79.50777275390625-35.67357509765625-79.507771875-79.74093251953126-79.507771875z" fill="#6A3906" p-id="7157"></path><path d="M351.5854923828125 579.8497405273438c-1.86528515625 0-3.9637309570312502-0.4663212890625-5.82901611328125-1.39896298828125l-48.26424814453125-25.647669140625c-6.06217587890625-3.2642490234375-8.39378232421875-10.725388769531248-5.1295341796875-16.7875646484375s10.725388769531248-8.39378232421875 16.787565527343748-5.12953330078125l48.26424814453125 25.64766826171875c6.06217587890625 3.2642490234375 8.39378232421875 10.725388769531248 5.1295341796875 16.7875646484375-2.0984458007812496 3.9637309570312502-6.52849716796875 6.52849716796875-10.958549414062501 6.52849716796875zM329.66839355468744 618.0880827148437c-1.86528515625 0-3.9637309570312502-0.4663212890625-5.8290152343749995-1.3989638671875l-48.2642490234375-25.64766826171875c-6.06217587890625-3.2642490234375-8.39378232421875-10.725388769531248-5.12953330078125-16.7875646484375s10.725388769531248-8.39378232421875 16.7875646484375-5.12953330078125l48.2642490234375 25.64766826171875c6.06217587890625 3.2642490234375 8.39378232421875 10.725388769531248 5.12953330078125 16.7875646484375-2.0984458007812496 3.9637309570312502-6.52849716796875 6.52849716796875-10.958549414062501 6.52849716796875z" fill="#6A3906" p-id="7158"></path></svg>